<svg width="239" height="137" viewBox="0 0 239 137" fill="none" xmlns="http://www.w3.org/2000/svg">
<g clip-path="url(#clip0_14_241)">
<path d="M119.488 46.0406C126.664 46.0406 127.512 46.0651 130.352 46.1972C132.967 46.3168 134.393 46.7614 135.347 47.1453C136.596 47.6375 137.492 48.2381 138.434 49.1987C139.377 50.1593 139.954 51.0718 140.449 52.3449C140.814 53.3049 141.25 54.7577 141.38 57.4355C141.509 60.3293 141.533 61.1935 141.533 68.506C141.533 75.8184 141.509 76.6826 141.38 79.5764C141.262 82.2423 140.826 83.6951 140.449 84.6677C139.966 85.9401 139.377 86.8526 138.434 87.8132C137.492 88.7738 136.596 89.3625 135.347 89.8666C134.405 90.2386 132.979 90.6832 130.352 90.8154C127.512 90.9468 126.664 90.9713 119.488 90.9713C112.313 90.9713 111.465 90.9468 108.625 90.8154C106.009 90.6951 104.583 90.2505 103.629 89.8666C102.38 89.3744 101.485 88.7738 100.542 87.8132C99.5995 86.8526 99.0219 85.9401 98.5272 84.6677C98.1622 83.707 97.7259 82.2542 97.5962 79.5764C97.4665 76.6826 97.4432 75.8184 97.4432 68.506C97.4432 61.1935 97.4665 60.3293 97.5962 57.4355C97.7142 54.7703 98.1505 53.3174 98.5272 52.3449C99.0102 51.0718 99.5995 50.1593 100.542 49.1987C101.485 48.2381 102.38 47.6501 103.629 47.1453C104.572 46.7733 105.997 46.3293 108.625 46.1972C111.465 46.0651 112.313 46.0406 119.488 46.0406ZM119.488 41.106C112.183 41.106 111.276 41.1423 108.401 41.2744C105.538 41.4059 103.582 41.8743 101.873 42.5469C100.106 43.2433 98.6095 44.1801 97.1132 45.705C95.6285 47.2299 94.7098 48.7547 94.0265 50.5558C93.3665 52.2967 92.9068 54.29 92.7772 57.2075C92.6481 60.1251 92.6125 61.0613 92.6125 68.4941C92.6125 75.9387 92.6481 76.863 92.7772 79.7925C92.9068 82.7101 93.3665 84.7033 94.0265 86.4443C94.7098 88.2453 95.6285 89.7701 97.1249 91.295C98.6212 92.8199 100.118 93.7567 101.886 94.4531C103.594 95.1257 105.55 95.5941 108.413 95.7256C111.276 95.8577 112.195 95.8941 119.5 95.8941C126.805 95.8941 127.712 95.8577 130.587 95.7256C133.45 95.5941 135.406 95.1257 137.114 94.4531C138.882 93.7567 140.378 92.8199 141.875 91.295C143.371 89.7701 144.29 88.2453 144.973 86.4443C145.633 84.7033 146.093 82.7101 146.223 79.7925C146.352 76.8749 146.387 75.9387 146.387 68.4941C146.387 61.0494 146.352 60.1251 146.223 57.1957C146.093 54.2774 145.633 52.2848 144.973 50.5432C144.29 48.7422 143.371 47.2173 141.875 45.6924C140.378 44.1676 138.882 43.2314 137.114 42.535C135.406 41.8624 133.45 41.394 130.587 41.2619C127.712 41.1423 126.793 41.106 119.488 41.106Z" fill="white"/>
<path d="M119.488 54.4341C111.865 54.4341 105.691 60.7258 105.691 68.4942C105.691 76.2625 111.877 82.5661 119.5 82.5661C127.123 82.5661 133.309 76.2744 133.309 68.4942C133.297 60.7258 127.111 54.4341 119.488 54.4341ZM119.488 77.6315C114.54 77.6315 110.534 73.5491 110.534 68.506C110.534 63.463 114.54 59.3806 119.488 59.3806C124.437 59.3806 128.443 63.463 128.443 68.506C128.455 73.5372 124.437 77.6315 119.488 77.6315Z" fill="white"/>
<path d="M137.068 53.8815C137.068 55.6945 135.618 57.1711 133.839 57.1711C132.06 57.1711 130.611 55.6945 130.611 53.8815C130.611 52.0686 132.06 50.5913 133.839 50.5913C135.618 50.5913 137.068 52.0561 137.068 53.8815Z" fill="white"/>
<path d="M58.8897 42.3H28.4195C22.4282 42.3 17.5546 47.1911 17.5546 53.2034V83.7966C17.5546 89.809 22.4282 94.7 28.4195 94.7H58.8884C64.8804 94.7 69.7546 89.809 69.7546 83.7966V53.2034C69.7546 47.1911 64.8804 42.3 58.8897 42.3ZM59.801 78.8974L55.0595 78.9625C55.0595 78.9625 54.0375 79.159 52.6976 78.2537C50.9241 77.059 49.2538 73.9527 47.9486 74.3545C46.8535 74.6906 46.6219 75.9579 46.6219 77.258C46.6219 77.7236 46.2896 77.9334 45.4086 77.9334C44.5281 77.9334 43.6766 77.9334 43.2858 77.9334C40.4211 77.9334 37.5796 77.802 34.4776 74.4714C30.0911 69.7617 26.0079 60.9746 26.0079 60.9746C26.0079 60.9746 25.7801 60.4964 26.0274 60.2064C26.3087 59.8804 27.0709 59.9209 27.0709 59.9209L32.1433 59.919C32.1433 59.919 32.6204 60.0125 32.964 60.2595C33.2472 60.4629 33.4045 60.8521 33.4045 60.8521C33.4045 60.8521 34.2252 62.8945 35.3108 64.7386C37.4311 68.339 38.4166 69.128 39.1359 68.7414C40.1863 68.1791 39.871 63.6539 39.871 63.6539C39.871 63.6539 39.8911 62.0107 39.343 61.2791C38.9201 60.7124 38.1214 60.5469 37.7684 60.5008C37.4827 60.4629 37.9503 59.8122 38.5576 59.5184C39.4714 59.0794 41.0831 59.0554 42.9894 59.0743C44.4734 59.0888 44.9013 59.1804 45.4803 59.3175C47.2305 59.7326 46.6352 61.336 46.6352 65.1808C46.6352 66.4127 46.4086 68.145 47.313 68.7193C47.7019 68.9663 48.6535 68.7559 51.0292 64.7879C52.1589 62.9072 53.0028 60.6954 53.0028 60.6954C53.0028 60.6954 53.1885 60.3517 53.4755 60.183C53.77 60.0099 53.7593 60.0131 54.1633 60.0131C54.5686 60.0131 58.6159 59.9809 59.5033 59.9809C60.3913 59.9809 61.2233 59.9701 61.3674 60.5046C61.5726 61.2728 60.7676 62.9962 58.5857 65.8536C55.0029 70.5444 54.6051 70.1066 57.5781 72.8187C60.419 75.4108 61.008 76.6711 61.1043 76.8284C62.2824 78.7464 59.801 78.8974 59.801 78.8974Z" fill="white"/>
</g>
<defs>
<clipPath id="clip0_14_241">
<rect width="239" height="137" fill="white"/>
</clipPath>
</defs>
</svg>
