<svg width="118" height="68" viewBox="0 0 118 68" fill="none" xmlns="http://www.w3.org/2000/svg">
<path d="M77.4353 47.1055L64.4352 36.0526C64.0553 35.7295 63.5044 35.7295 63.1244 36.0526L59.6223 39.0302C59.2695 39.3299 58.7586 39.3299 58.4065 39.0302L54.9041 36.0526C54.5241 35.7295 53.9732 35.7295 53.5929 36.0526L40.5929 47.1055C40.4143 47.2577 40.5193 47.5554 40.752 47.5554H77.2765C77.5089 47.5554 77.6139 47.2577 77.4353 47.1055Z" fill="white"/>
<path d="M51.9691 33.5572L38.7111 22.2845C38.5494 22.1468 38.3039 22.2648 38.3039 22.4803V45.5169C38.3039 45.7323 38.5494 45.8504 38.7111 45.713L51.9691 34.4406C52.2393 34.2108 52.2393 33.7864 51.9691 33.5572Z" fill="white"/>
<path d="M40.5936 20.8921L58.5167 36.1312C58.8051 36.3761 59.2234 36.3761 59.5115 36.1312L77.4353 20.8921C77.6139 20.74 77.5089 20.4419 77.2765 20.4419H40.752C40.5193 20.4419 40.4143 20.74 40.5936 20.8921Z" fill="white"/>
<path d="M79.3177 22.2845L66.0594 33.5572C65.7892 33.7864 65.7892 34.2108 66.0594 34.4406L79.3177 45.713C79.4794 45.8504 79.7243 45.733 79.7243 45.5175V22.4803C79.7243 22.2648 79.4794 22.1468 79.3177 22.2845Z" fill="white"/>
</svg>
