<svg width="115" height="69" viewBox="0 0 115 69" fill="none" xmlns="http://www.w3.org/2000/svg">
<path d="M49.7734 32.6522C51.8436 36.9916 55.1712 40.5414 59.2466 42.7493L62.409 39.3682C62.8045 38.9466 63.3723 38.8241 63.868 38.9925C65.478 39.5598 67.2103 39.8666 69 39.8666C69.7977 39.8666 70.4375 40.5491 70.4375 41.4V46.7666C70.4375 47.6175 69.7977 48.3 69 48.3C55.5019 48.3 44.5625 36.6312 44.5625 22.2333C44.5625 21.3824 45.2095 20.7 46 20.7H51.0312C51.8289 20.7 52.4688 21.3824 52.4688 22.2333C52.4688 24.1423 52.7564 25.9901 53.2883 27.7074C53.4461 28.2362 53.3313 28.8418 52.9361 29.2637L49.7734 32.6522Z" fill="white"/>
</svg>
