<svg width="160" height="131" viewBox="0 0 160 131" fill="none" xmlns="http://www.w3.org/2000/svg">
<path d="M58.8897 39.3H28.4195C22.4282 39.3 17.5546 44.1911 17.5546 50.2034V80.7966C17.5546 86.809 22.4282 91.7 28.4195 91.7H58.8884C64.8804 91.7 69.7546 86.809 69.7546 80.7966V50.2034C69.7546 44.1911 64.8804 39.3 58.8897 39.3ZM59.801 75.8974L55.0595 75.9625C55.0595 75.9625 54.0375 76.159 52.6976 75.2537C50.9241 74.059 49.2538 70.9527 47.9486 71.3545C46.8535 71.6906 46.6219 72.9579 46.6219 74.258C46.6219 74.7236 46.2896 74.9334 45.4086 74.9334C44.5281 74.9334 43.6766 74.9334 43.2858 74.9334C40.4211 74.9334 37.5796 74.802 34.4776 71.4714C30.0911 66.7617 26.0079 57.9746 26.0079 57.9746C26.0079 57.9746 25.7801 57.4964 26.0274 57.2064C26.3087 56.8804 27.0709 56.9209 27.0709 56.9209L32.1433 56.919C32.1433 56.919 32.6204 57.0125 32.964 57.2595C33.2472 57.4629 33.4045 57.8521 33.4045 57.8521C33.4045 57.8521 34.2252 59.8945 35.3108 61.7386C37.4311 65.339 38.4166 66.128 39.1359 65.7414C40.1863 65.1791 39.871 60.6539 39.871 60.6539C39.871 60.6539 39.8911 59.0107 39.343 58.2791C38.9201 57.7124 38.1214 57.5469 37.7684 57.5008C37.4827 57.4629 37.9503 56.8122 38.5576 56.5184C39.4714 56.0794 41.0831 56.0554 42.9894 56.0743C44.4734 56.0888 44.9013 56.1804 45.4803 56.3175C47.2305 56.7326 46.6352 58.336 46.6352 62.1808C46.6352 63.4127 46.4086 65.145 47.313 65.7193C47.7019 65.9663 48.6535 65.7559 51.0292 61.7879C52.1589 59.9072 53.0028 57.6954 53.0028 57.6954C53.0028 57.6954 53.1885 57.3517 53.4755 57.183C53.77 57.0099 53.7593 57.0131 54.1633 57.0131C54.5686 57.0131 58.6159 56.9809 59.5033 56.9809C60.3913 56.9809 61.2233 56.9701 61.3674 57.5046C61.5726 58.2728 60.7676 59.9962 58.5857 62.8536C55.0029 67.5444 54.6051 67.1066 57.5781 69.8187C60.419 72.4108 61.008 73.6711 61.1043 73.8284C62.2824 75.7464 59.801 75.8974 59.801 75.8974Z" fill="white"/>
</svg>
